<?xml version="1.0" encoding="UTF-8"?>
<svg width="19px" height="22px" viewBox="0 0 19 22" version="1.1" xmlns="http://www.w3.org/2000/svg" xmlns:xlink="http://www.w3.org/1999/xlink">
    <!-- Generator: sketchtool 58 (101010) - https://sketch.com -->
    <title>260F44E9-A982-4300-AC43-31E655C01A79</title>
    <desc>Created with sketchtool.</desc>
    <g id="Style-Guide" stroke="none" stroke-width="1" fill="none" fill-rule="evenodd" fill-opacity="0.706402972">
        <g id="Icons" transform="translate(-402.000000, -185.000000)" fill="#233539" fill-rule="nonzero">
            <g id="Notification" transform="translate(402.000000, 185.000000)">
                <path d="M9.45,0 C10.9515777,0 12.1781037,1.18237186 12.246952,2.66544838 C14.8631908,3.77184279 16.625,6.35293904 16.625,9.27473729 L16.625,13.3067087 C17.797793,13.396587 18.725,14.3783623 18.725,15.575 C18.725,16.8307501 17.7040217,17.85 16.4465374,17.85 L2.45346262,17.85 C1.19526036,17.85 0.175,16.8320397 0.175,15.575 C0.175,14.3787143 1.10067951,13.3964976 2.275,13.3066937 L2.275,9.27473729 C2.275,6.3523271 4.03674883,3.77162023 6.65305312,2.66537149 C6.7219894,1.18200404 7.94960856,0 9.45,0 Z M7.79198532,4.10764785 C5.56534703,4.82107518 4.025,6.89858789 4.025,9.27473729 L4.025,13.4743898 C4.025,14.3439996 3.31943343,15.05 2.45073041,15.05 C2.1609706,15.05 1.925,15.2860306 1.925,15.575 C1.925,15.8646562 2.1608756,16.1 2.45346262,16.1 L16.4465374,16.1 C16.7381865,16.1 16.975,15.8635874 16.975,15.575 C16.975,15.2864507 16.7380829,15.05 16.4492696,15.05 C15.5790791,15.05 14.875,14.3462627 14.875,13.4743898 L14.875,9.27473729 C14.875,6.89918681 13.3345209,4.82118504 11.1079771,4.10767739 L10.5,3.91284789 L10.5,2.79703956 C10.5,2.21984753 10.0296517,1.75 9.45,1.75 C8.8710643,1.75 8.4,2.21997503 8.4,2.79703956 L8.4,3.91283655 L7.79198532,4.10764785 Z M6.125,17.85 L7.875,17.85 C7.875,18.7198485 8.58015151,19.425 9.45,19.425 C10.3198485,19.425 11.025,18.7198485 11.025,17.85 L12.775,17.85 C12.775,19.6863468 11.2863468,21.175 9.45,21.175 C7.61365321,21.175 6.125,19.6863468 6.125,17.85 Z" id="Shape"></path>
            </g>
        </g>
    </g>
</svg>